<?xml version="1.0" encoding="UTF-8" standalone="no"?><!DOCTYPE svg PUBLIC "-//W3C//DTD SVG 1.1//EN" "http://www.w3.org/Graphics/SVG/1.1/DTD/svg11.dtd"><svg width="100%" height="100%" viewBox="0 0 834 625" version="1.1" xmlns="http://www.w3.org/2000/svg" xmlns:xlink="http://www.w3.org/1999/xlink" xml:space="preserve" xmlns:serif="http://www.serif.com/" style="fill-rule:evenodd;clip-rule:evenodd;stroke-linejoin:round;stroke-miterlimit:2;"><g id="Layer1"></g><path id="main" d="M510.027,29.489c-26.557,6.341 -30.112,45.291 -5.144,56.435l6.56,2.928l0.017,56.384c0.008,31.01 -1.09,147.144 -0.973,144.264c0.037,-0.907 0.752,83.89 0.752,83.89l0.809,97.264c1.419,-0.219 -3.031,-0.593 -0,0c2.882,0.56 5.168,0.767 6.912,0.584c2.667,-0.281 4.064,-1.477 4.376,-3.725l0,-95.748l31.268,-30.98c17.197,-17.042 33.708,-32.835 36.689,-35.103l5.426,-4.123l83.968,-1.023l83.965,-1.028l3.811,4.106c7.378,7.949 19.381,3.739 19.381,-6.8c0,-7.167 -13.6,-14.134 -16.937,-8.671c-1.197,1.955 -144.902,2.306 -144.081,0.351c0.298,-0.706 29.092,-29.527 63.994,-64.041l63.456,-62.763l18.63,-0.814c20.111,-0.882 24.451,-2.878 20.396,-9.382c-1.622,-2.606 -6.763,-2.928 -58.687,-3.671l-56.913,-0.815l14.947,-14.389l14.946,-14.386l6.656,1.241c18.584,3.467 31.425,-6.52 29.439,-22.907c-3.386,-27.993 -42.073,-25.613 -42.172,2.59l-0.033,10.321l-13.675,13.354l-13.675,13.358l0.495,-41.907c0.595,-50.266 0.764,-49.167 -9.438,-61.923c-12.172,-15.217 -16.458,-11.395 -5.57,4.962l5.644,8.479l0,97.995l-18.547,18.713l-18.547,18.708l0,-40.825c0,-0 1.403,-8.805 0.748,-17.042c-0.033,-0.412 0.902,-0.045 0.175,-26.408c-0.446,-16.156 -6.347,-31.232 5.198,-37.123c4.945,-2.523 9.363,-3.101 10.739,-6.934c1.309,-3.649 0.406,-8.135 -3.319,-11.904c-5.591,-5.655 -18.962,-1.638 -20.929,6.092c-0.342,1.344 -1.282,5.941 -1.282,5.941c-0.928,17.534 0.14,54.221 -0.335,83.389l-0.859,53.026l-47.486,48.127l-47.486,48.131l0.05,-19.577c0.062,-22.781 -1.838,-19.072 22.989,-44.969c9.951,-10.376 25.529,-27.631 34.621,-38.341l17.14,-19.664c0.21,-46.977 -1.128,-63.48 -1.075,-66.976c0.043,-2.811 -0.509,-5.861 -0.66,-6.688c-1.732,-9.508 -13.477,-17.401 -19.931,-9.109c-6.238,8.024 -1.147,18.545 8.972,18.545l3.816,0l-0.27,59.372l-14.396,16.071c-7.296,8.291 -21.809,24.405 -32.259,35.808l-18.997,20.731l0,-24.54c0,-8.178 0.847,-32.154 0.847,-50.574c0,-54.087 -1.245,-67.73 1.373,-68.662c26.891,-9.582 26.288,-49.931 -0.859,-57.558c-6.709,-1.884 -9.78,-0.045 -14.67,-0.067m19.534,14.544c11.912,10.768 4.211,31.135 -11.772,31.135c-12.39,0 -19.248,-6.086 -19.248,-17.079c-0,-16.178 19.096,-24.832 31.02,-14.056m200.14,45.008c7.052,3.817 5.083,17.806 -2.989,21.189c-7.808,3.271 -16.284,-3.5 -16.284,-13.011c-0,-6.913 12.114,-12.055 19.273,-8.178m-9.599,90.146c-51.368,50.729 -99.097,98.902 -103.495,104.466c-4.694,5.939 -5.144,6.119 -15.297,6.119l-10.467,-0l-25.285,24.995c-13.906,13.75 -29.096,28.532 -33.753,32.856l-8.469,7.861l-0.062,-26.737l-0.058,-26.737l71.157,-71.384l71.161,-71.383l37.363,0.016l37.366,0.021l-20.161,19.907m43.188,28.993c-15.731,4.795 -24.522,23.274 -18.271,38.407l2.337,5.659l-77.251,0l0,4.896c0,2.69 0.182,4.92 0.405,4.954c0.219,0.033 15.281,0.401 33.464,0.81c18.184,0.409 42.519,1.103 54.08,1.541c24.001,0.907 28.469,-0.418 36.714,-10.856c16.598,-21.026 -5.739,-53.256 -31.478,-45.411m18.229,12.585c12.853,7.681 11.304,25.538 -2.8,32.308c-18.737,8.993 -34.719,-15.421 -19.393,-29.631c6.796,-6.303 14.558,-7.239 22.193,-2.677m-459.447,63.345l0,5.977l6.453,-0.873l6.45,-0.877l-0,18.513c-0,19.614 0.656,21.344 7.448,19.619l4.042,-1.028l-0.503,-17.819l-0.504,-17.823l6.453,-0.476c5.987,-0.447 6.45,-0.831 6.45,-5.376l-0,-4.895l-18.143,-0.459l-18.146,-0.46l0,5.977m71.083,10.37c0,-7.034 -0.302,-14.609 -4.955,-14.609l-4.839,-0l0,45.303l3.993,0.773c5.392,1.044 5.685,0.505 5.685,-10.455l0,-9.515l17.738,-0l-0,19.577l9.678,-0l-0,-47.317l-4.753,0c-4.599,0 -5.053,7.842 -5.524,16.129m37.697,7.342l-0,23.846l14.343,-0c10.504,-0 14.563,-0.585 15.17,-2.185c1.589,-4.193 -1.751,-6.403 -10.388,-6.875c-13.56,-0.735 -13.469,-9.69 0.099,-9.724c9.364,-0.021 11.201,-1.633 8.241,-7.23c-1.383,-2.615 -3.361,-3.354 -8.976,-3.354c-6.607,-0 -7.201,-0.339 -7.201,-4.081c-0,-3.705 0.623,-4.081 6.854,-4.098c9.963,-0.033 14.112,-1.524 14.112,-5.066c0,-2.74 -1.342,-3.075 -12.498,-3.095c-6.874,-0.013 -14.133,-0.464 -16.127,-1.003l-3.629,-0.986l-0,23.851m294.343,66.142c-31.545,5.522 -53.032,44.505 -39.778,72.181c10.826,22.606 40.719,35.671 65.166,28.483c17.948,-5.28 20.042,-9.173 20.95,-38.942l0.433,-14.277l-37.547,0l-0.76,6.116c-1.065,8.608 -0.38,9.114 10.945,8.044c11.594,-1.094 11.978,-0.626 12.02,14.607l0.02,8.371l-7.163,1.825c-10.2,2.598 -19.727,1.969 -27.772,-0.989c-20.114,-7.396 -30.961,-29.352 -19.884,-51.837c9.649,-19.585 39.105,-24.982 53.246,-9.757c4.852,5.229 5.818,5.104 9.653,-1.262c4.633,-7.685 4.303,-8.353 -7.675,-15.554c-11.598,-6.976 -20.661,-8.968 -31.854,-7.009m-712.069,0.655c-0,0.293 1.841,6.717 4.095,14.277c2.255,7.56 6.916,24.026 10.364,36.59c16.276,59.355 20.07,64.822 28.089,40.475c11.333,-34.418 23.58,-63.477 23.58,-55.955c-0,2.193 20.677,58.285 23.6,64.02c5.929,11.637 10.818,6.341 17.709,-19.172c2.18,-8.074 6.437,-23.127 9.455,-33.445c3.018,-10.321 6.998,-24.063 8.844,-30.541c1.842,-6.479 3.794,-12.945 4.335,-14.373c0.834,-2.197 -0.227,-2.523 -6.845,-2.093l-7.829,0.506l-2.915,10.605c-1.602,5.831 -5.797,19.782 -9.314,31.001c-3.522,11.215 -7.019,22.965 -7.779,26.106l-1.375,5.71l-3.572,-12.239c-12.081,-41.376 -20.834,-61.998 -26.313,-61.998c-4.57,0 -7.68,2.807 -7.68,6.93c0,1.658 -4.355,15.976 -9.678,31.811c-5.322,15.839 -9.678,30.12 -9.678,31.741c0,5.743 -2.869,2.823 -4.727,-4.812c-3.819,-15.672 -16.524,-59.902 -18.027,-62.742c-1.309,-2.473 -14.339,-4.657 -14.339,-2.402m175.262,0.56c-0.591,0.597 -1.078,23.725 -1.078,51.397l0,50.307l15.45,0l0.471,-51.397l0.471,-51.393l-7.118,0c-3.919,0 -7.606,0.489 -8.196,1.086m66.665,47.726c-0,26.849 -0.442,49.977 -0.979,51.397c-0.875,2.302 2.539,2.581 31.45,2.581l32.428,0l-0,-16.315l-48.886,0l0.962,-24.94c0.533,-13.713 0.533,-33.169 0.008,-43.236l-0.954,-18.299l-14.029,0l-0,48.812m106.446,-2.519c-0,25.467 -0.475,48.695 -1.053,51.619l-1.053,5.321l21.896,-0.752c39.43,-1.353 62.465,-20.425 62.465,-51.719c0,-35.704 -22.192,-50.319 -77.015,-50.724l-5.24,-0.038l-0,46.293m195.155,4.077l0,50.37l6.664,1.081c8.489,1.37 7.593,5.259 7.977,-34.61c0.182,-19.084 0.9,-34.489 1.594,-34.23c0.689,0.255 6.68,8.174 13.311,17.598c31.834,45.244 36.987,51.397 43.064,51.397l5.612,-0l0.85,-101.976l-6.305,0c-7.679,0 -7.65,-0.163 -8.092,42.354c-0.165,15.668 -0.52,28.708 -0.789,28.98c-0.268,0.271 -3.848,-4.469 -7.96,-10.539c-31.615,-46.689 -43.296,-60.795 -50.352,-60.795l-5.574,0l0,50.37m-146.785,-30.258c34.723,17.856 17.651,67.992 -23.155,67.992l-10.698,0l0,-73.89l13.303,1.086c8.96,0.731 15.673,2.302 20.55,4.812m-258.038,146.235c-20.128,10.86 -21.437,35.441 -2.593,48.653c16.738,11.737 40.739,-2.068 42.515,-24.452c1.585,-19.991 -21.631,-34.063 -39.922,-24.201m65.488,12.1c-2.283,32.401 13.32,49.664 33.485,37.058c10.491,-6.558 12.3,-11.307 12.304,-32.359l0.008,-18.353l-9.323,-0l-0.598,17.798c-0.69,20.375 -2.746,24.623 -11.925,24.623c-10.425,0 -12.729,-4.022 -13.637,-23.804c-0.793,-17.31 -0.871,-17.598 -5.033,-18.717l-4.232,-1.141l-1.049,14.895m144.345,12.523l-0.239,28.161l14.806,-1.065c24.22,-1.738 32.783,-9.603 31.726,-29.13c-0.95,-17.581 -7.857,-22.948 -32.143,-24.97l-13.906,-1.157l-0.244,28.161m89.506,-26.432c-8.068,13.312 -21.933,46.398 -21.933,52.346c0,5.647 9.612,1.524 11.309,-4.85l1.759,-6.599l10.805,0.484c10.719,0.476 10.826,0.526 13.758,6.596c2.411,4.991 3.823,6.119 7.663,6.119c5.851,-0 5.842,-0.911 -0.132,-14.682c-2.663,-6.136 -4.839,-11.612 -4.839,-12.168c-0,-8.337 -15.727,-31.64 -18.39,-27.246m39.356,4.332c0,5.659 0.062,5.71 7.085,5.71c8.902,-0 9.043,0.371 9.043,23.791l-0,18.634l9.678,-0l-0,-44.054l7.258,-0c6.986,-0 7.259,-0.184 7.259,-4.896l-0,-4.895l-40.323,-0l0,5.71m112.256,-0.744c-12.94,11.495 -14.715,24.155 -5.384,38.411c10.933,16.696 30.706,15.033 41.053,-3.45c13.415,-23.959 -15.809,-52.6 -35.669,-34.961m62.866,-3.55c-1.243,2.034 0,49.998 1.35,52.207c5.054,8.275 8.609,-0.259 9.422,-22.622l0.388,-10.605l3.634,6.879c5.487,10.384 22.593,28.199 27.081,28.199c4.728,-0 5.991,-8.605 5.268,-35.893l-0.499,-18.767l-5.033,-0.493c-6.152,-0.605 -7.011,1.73 -7.044,19.135l-0.021,12.113l-4.232,-3.955c-2.328,-2.177 -7.82,-8.73 -12.209,-14.561c-8.86,-11.779 -15.434,-16.006 -18.105,-11.637m-585.139,15.254c-0.867,36.59 -0.929,35.997 3.881,37.296c5.739,1.55 6.152,0.894 6.156,-9.778l0.004,-9.11l10.009,-0.522c19.727,-1.028 17.114,-11.712 -2.866,-11.712c-6.846,-0 -7.151,-0.205 -7.151,-4.821c-0,-5.267 2.143,-6.115 17.742,-7.004c6.556,-0.372 7.258,-0.807 7.258,-4.491c0,-4.072 -0.041,-4.081 -17.341,-4.544l-17.337,-0.464l-0.355,15.15m208.413,12.802l-0,27.84l5.239,-0.51l5.244,-0.51l-0,-17.405c-0,-20.383 -0.743,-20.479 15.458,1.984c18.556,25.722 21.239,23.784 20.488,-14.765l-0.463,-23.659l-5.185,-0.505l-5.182,-0.51l-0.463,16.011l-0.462,16.006l-4.236,-6.583c-8.572,-13.325 -20.731,-25.233 -25.764,-25.233l-4.674,-0l-0,27.839m264.867,-2.209l0.446,25.634l5.239,1.081l5.244,1.086l-0,-53.431l-11.375,-0l0.446,25.63m-382.623,-15.037c18.993,9.937 6.949,38.849 -12.845,30.838c-15.268,-6.182 -15.293,-25.287 -0.041,-31.44c5.636,-2.272 7.56,-2.184 12.886,0.602m455.241,4.243c6.309,6.817 6.194,16.27 -0.28,22.815c-12.697,12.844 -30.377,-3.112 -21.875,-19.744c5.21,-10.196 14.385,-11.47 22.155,-3.071m-232.381,1.254c10.17,11.515 2.828,26.331 -13.051,26.331l-8.188,0l-0.02,-12.644c-0.013,-6.958 -0.488,-14.398 -1.053,-16.54c-1.738,-6.571 15.995,-4.303 22.312,2.853m63.011,7.568l2.692,7.343l-6.375,0c-7.172,0 -7.494,-0.785 -3.658,-8.922c3.489,-7.401 4.1,-7.268 7.341,1.579"/></svg>